<svg id="Layer_1" data-name="Layer 1" xmlns="http://www.w3.org/2000/svg" viewBox="0 0 1366 770"><defs><style>.cls-1{fill:transparent;}.cls-2,.cls-4{fill:#333;}.cls-3{fill:#a4cac1;fill-rule:evenodd;}.cls-4{font-size:108px;font-family:BronxRegular, Bronx;}.cls-5{letter-spacing:-0.01em;}.cls-6{letter-spacing:-0.01em;}.cls-7{letter-spacing:-0.07em;}.cls-8{letter-spacing:-0.09em;}.cls-9{letter-spacing:-0.02em;}</style></defs><rect class="cls-1" width="1366" height="770"/><circle class="cls-2" cx="546.61" cy="157.11" r="43.84"/><path class="cls-2" d="M663.15,141a19.09,19.09,0,0,0-24.9,11.91l-11.37,33A35.11,35.11,0,0,1,602,208.61a223.34,223.34,0,0,1-53.58,6.49H519.17c-14.07,0-27.6,6-36.26,16.78-22.73,26.52-38.43,56.83-48.17,90.39l-1.09,3.25c-2.16,8.66,1.09,17.32,8.66,21.65V364h-8.12a8.55,8.55,0,0,0-8.66,8.66V435.4a8.55,8.55,0,0,0,8.66,8.66H461.8a8.55,8.55,0,0,0,8.66-8.66V372.61A8.55,8.55,0,0,0,461.8,364h-7.58V350.42c7.58-.54,14.62-6,17.32-14.07l.54-2.71a196.3,196.3,0,0,1,27.61-59l-.54,67.12-13,145.6A20.15,20.15,0,0,0,501.85,509c1.08,0,2.71.54,3.79.54,10.28,0,18.4-7.58,19.49-17.86L537,356.37a8.74,8.74,0,0,1,17.32,0L566.26,490.6c1.08,9.75,8.12,18.41,17.86,18.95a19.36,19.36,0,0,0,21.11-21.11l-13-146.14-.54-90.39c6.5-1.08,13-2.17,18.95-3.79,24.89-6,44.38-23.82,53-48.17l11.36-33C678.84,155.57,673.43,144.74,663.15,141ZM556.52,302.79l-9.2,10.28a1.54,1.54,0,0,1-2.71,0l-9.2-10.28a2,2,0,0,1-.54-1.63l7.58-55.75h-3.79a2.33,2.33,0,0,1-2.17-2.16V231.88a2.33,2.33,0,0,1,2.17-2.16h14.61a2.33,2.33,0,0,1,2.17,2.16v11.91a2.34,2.34,0,0,1-2.17,2.17h-3.79l7.58,55.74A1.69,1.69,0,0,1,556.52,302.79Z" transform="translate(0.92 1)"/><circle class="cls-2" cx="820.49" cy="157.11" r="43.84"/><path class="cls-2" d="M931.07,364h-7.58V347.17a20.07,20.07,0,0,0,8.66-21.65l-.54-2.71a232.29,232.29,0,0,0-48.17-90.39,47.08,47.08,0,0,0-36.27-16.78H818a223.42,223.42,0,0,1-53.59-6.49,34.16,34.16,0,0,1-24.9-22.73l-11.36-33c-3.79-10.28-14.62-15.7-24.9-11.91s-15.7,14.62-11.91,24.9l11.37,33a73.39,73.39,0,0,0,53,48.17c6.5,1.62,12.45,2.71,18.95,3.79l-.54,90.39-13,145.06c-1.08,9.74,4.88,19.48,14.62,21.65,11.91,3.24,23.27-5.42,24.36-17.32L812,355.83a8.74,8.74,0,0,1,17.32,0l11.91,135.32A19.85,19.85,0,0,0,860.71,509h1.62c10.83-1.09,18.94-10.29,17.86-21.11l-13-146.14-.54-67.12a196,196,0,0,1,27.6,59l.55,2.71a19,19,0,0,0,17.32,14.07V364h-7.58a8.55,8.55,0,0,0-8.66,8.66V435.4a8.55,8.55,0,0,0,8.66,8.66h27.6a8.55,8.55,0,0,0,8.66-8.66V372.61C939.73,367.74,935.94,364,931.07,364ZM829.85,302.79l-9.2,10.28a1.53,1.53,0,0,1-2.7,0l-9.2-10.28a2,2,0,0,1-.55-1.63l7.58-55.75H812a2.32,2.32,0,0,1-2.16-2.16V231.88a2.32,2.32,0,0,1,2.16-2.16h14.62a2.32,2.32,0,0,1,2.16,2.16v11.91a2.33,2.33,0,0,1-2.16,2.17h-3.79l7.58,55.74A1.67,1.67,0,0,1,829.85,302.79Z" transform="translate(0.92 1)"/><path class="cls-2" d="M641,118.22a10,10,0,0,0,9.2,6,9.26,9.26,0,0,0,3.79-.54,10,10,0,0,0,5.41-13L650.7,90.07a10,10,0,0,0-18.4,7.58Z" transform="translate(0.92 1)"/><path class="cls-2" d="M711.32,123.63a9.24,9.24,0,0,0,3.79.54,10,10,0,0,0,9.2-6L733,97.65c2.16-4.87-.54-10.82-5.41-13s-10.83.54-13,5.41l-8.66,20.57C704.28,115.51,706.45,121.47,711.32,123.63Z" transform="translate(0.92 1)"/><path class="cls-2" d="M692.38,107.93V85.74a9.75,9.75,0,0,0-19.49,0v22.19a9.75,9.75,0,1,0,19.49,0Z" transform="translate(0.92 1)"/><path class="cls-3" d="M1242.71,629.82a20.32,20.32,0,1,1,3.15-3.22l9,9.23c.05,0,.08.09.13.13a33.73,33.73,0,0,1,44.42,0l11.14-11.14a11.23,11.23,0,1,1,3.18,3.18l-11.14,11.14a33.73,33.73,0,0,1,0,44.43l5.37,5.36a22.5,22.5,0,1,1-3.18,3.18l-5.36-5.37a33.73,33.73,0,0,1-44.43,0l-17.18,17.31a15.66,15.66,0,1,1-3.26-3.1l17.26-17.4a33.71,33.71,0,0,1,0-44.44l-.17-.15-8.91-9.16Zm34.45,11.3a20.25,20.25,0,1,0,20.25,20.25A20.25,20.25,0,0,0,1277.16,641.12Z" transform="translate(0.92 1)"/><path class="cls-3" d="M54.71,629.82a20.32,20.32,0,1,1,3.15-3.22l9,9.23L67,636a33.73,33.73,0,0,1,44.42,0l11.14-11.14a11.23,11.23,0,1,1,3.18,3.18l-11.14,11.14a33.73,33.73,0,0,1,0,44.43l5.37,5.36a22.5,22.5,0,1,1-3.18,3.18l-5.36-5.37a33.73,33.73,0,0,1-44.43,0L49.79,704.06a15.66,15.66,0,1,1-3.26-3.1l17.26-17.4a33.71,33.71,0,0,1,0-44.44l-.17-.15-8.91-9.16Zm34.45,11.3a20.25,20.25,0,1,0,20.25,20.25A20.25,20.25,0,0,0,89.16,641.12Z" transform="translate(0.92 1)"/><text class="cls-4" transform="translate(163.6 700.15)"><tspan class="cls-5">S</tspan><tspan x="61.13" y="0">u</tspan><tspan class="cls-6" x="133.05" y="0">pp</tspan><tspan x="274.75" y="0">lier </tspan><tspan class="cls-7" x="534.92" y="0">C</tspan><tspan class="cls-6" x="602.74" y="0">o</tspan><tspan x="688.06" y="0">nn</tspan><tspan class="cls-8" x="831.91" y="0">e</tspan><tspan class="cls-9" x="886.88" y="0">c</tspan><tspan x="960.65" y="0">t</tspan></text></svg>